<svg width="23" height="23" viewBox="0 0 23 23" fill="none" xmlns="http://www.w3.org/2000/svg">
<path d="M11.5 23C9.92833 23 8.44292 22.6979 7.04375 22.0938C5.64458 21.4904 4.4229 20.6663 3.3787 19.6213C2.33373 18.5771 1.50957 17.3554 0.9062 15.9562C0.302067 14.5571 0 13.0717 0 11.5C0 9.90917 0.302067 8.41915 0.9062 7.02995C1.50957 5.63998 2.33373 4.4229 3.3787 3.3787C4.4229 2.33373 5.64458 1.50918 7.04375 0.90505C8.44292 0.301683 9.92833 0 11.5 0C13.0908 0 14.5808 0.301683 15.97 0.90505C17.36 1.50918 18.5771 2.33373 19.6213 3.3787C20.6663 4.4229 21.4904 5.63998 22.0938 7.02995C22.6979 8.41915 23 9.90917 23 11.5C23 13.0717 22.6979 14.5571 22.0938 15.9562C21.4904 17.3554 20.6663 18.5771 19.6213 19.6213C18.5771 20.6663 17.36 21.4904 15.97 22.0938C14.5808 22.6979 13.0908 23 11.5 23ZM11.5 20.6425C11.9983 19.9525 12.4296 19.2338 12.7937 18.4862C13.1579 17.7388 13.455 16.9433 13.685 16.1H9.315C9.545 16.9433 9.84208 17.7388 10.2063 18.4862C10.5704 19.2338 11.0017 19.9525 11.5 20.6425ZM8.51 20.1825C8.165 19.55 7.86332 18.8933 7.60495 18.2125C7.34582 17.5325 7.13 16.8283 6.9575 16.1H3.565C4.12083 17.0583 4.81543 17.8921 5.6488 18.6012C6.48293 19.3104 7.43667 19.8375 8.51 20.1825ZM14.49 20.1825C15.5633 19.8375 16.5167 19.3104 17.35 18.6012C18.1842 17.8921 18.8792 17.0583 19.435 16.1H16.0425C15.87 16.8283 15.6546 17.5325 15.3962 18.2125C15.1371 18.8933 14.835 19.55 14.49 20.1825ZM2.5875 13.8H6.4975C6.44 13.4167 6.39668 13.0379 6.36755 12.6638C6.33918 12.2904 6.325 11.9025 6.325 11.5C6.325 11.0975 6.33918 10.7096 6.36755 10.3362C6.39668 9.96207 6.44 9.58333 6.4975 9.2H2.5875C2.49167 9.58333 2.4196 9.96207 2.3713 10.3362C2.32377 10.7096 2.3 11.0975 2.3 11.5C2.3 11.9025 2.32377 12.2904 2.3713 12.6638C2.4196 13.0379 2.49167 13.4167 2.5875 13.8ZM8.7975 13.8H14.2025C14.26 13.4167 14.3033 13.0379 14.3324 12.6638C14.3608 12.2904 14.375 11.9025 14.375 11.5C14.375 11.0975 14.3608 10.7096 14.3324 10.3362C14.3033 9.96207 14.26 9.58333 14.2025 9.2H8.7975C8.74 9.58333 8.69707 9.96207 8.6687 10.3362C8.63957 10.7096 8.625 11.0975 8.625 11.5C8.625 11.9025 8.63957 12.2904 8.6687 12.6638C8.69707 13.0379 8.74 13.4167 8.7975 13.8ZM16.5025 13.8H20.4125C20.5083 13.4167 20.5804 13.0379 20.6287 12.6638C20.6762 12.2904 20.7 11.9025 20.7 11.5C20.7 11.0975 20.6762 10.7096 20.6287 10.3362C20.5804 9.96207 20.5083 9.58333 20.4125 9.2H16.5025C16.56 9.58333 16.6029 9.96207 16.6313 10.3362C16.6604 10.7096 16.675 11.0975 16.675 11.5C16.675 11.9025 16.6604 12.2904 16.6313 12.6638C16.6029 13.0379 16.56 13.4167 16.5025 13.8ZM16.0425 6.9H19.435C18.8792 5.94167 18.1842 5.10792 17.35 4.39875C16.5167 3.68958 15.5633 3.1625 14.49 2.8175C14.835 3.45 15.1371 4.10627 15.3962 4.7863C15.6546 5.4671 15.87 6.17167 16.0425 6.9ZM9.315 6.9H13.685C13.455 6.05667 13.1579 5.26125 12.7937 4.51375C12.4296 3.76625 11.9983 3.0475 11.5 2.3575C11.0017 3.0475 10.5704 3.76625 10.2063 4.51375C9.84208 5.26125 9.545 6.05667 9.315 6.9ZM3.565 6.9H6.9575C7.13 6.17167 7.34582 5.4671 7.60495 4.7863C7.86332 4.10627 8.165 3.45 8.51 2.8175C7.43667 3.1625 6.48293 3.68958 5.6488 4.39875C4.81543 5.10792 4.12083 5.94167 3.565 6.9Z" fill="white"/>
</svg>
